<?xml version="1.0" encoding="UTF-8"?>
<svg width="22px" height="22px" viewBox="0 0 22 22" version="1.1" xmlns="http://www.w3.org/2000/svg" xmlns:xlink="http://www.w3.org/1999/xlink">
    <!-- Generator: Sketch 52.2 (67145) - http://www.bohemiancoding.com/sketch -->
    <title>huoche</title>
    <desc>Created with Sketch.</desc>
    <defs>
        <linearGradient x1="18.6701739%" y1="0%" x2="18.6701739%" y2="86.2240005%" id="linearGradient-1">
            <stop stop-color="#B9E384" offset="0%"></stop>
            <stop stop-color="#1DB633" offset="100%"></stop>
        </linearGradient>
    </defs>
    <g id="审批" stroke="none" stroke-width="1" fill="none" fill-rule="evenodd">
        <g id="-" transform="translate(-26.000000, -146.000000)">
            <g id="huoche" transform="translate(26.000000, 146.000000)">
                <rect id="Rectangle-Copy-9" fill-rule="nonzero" x="0" y="0" width="22" height="22"></rect>
                <path d="M14.0967944,14.2398134 C14.0967944,15.0219307 14.7307918,15.6559281 15.5129091,15.6559281 C16.2950264,15.6559281 16.9290238,15.0219307 16.9290238,14.2398134 C16.9295252,13.4576961 16.2960292,12.8232976 15.5139119,12.8227962 C14.7317946,12.8221945 14.0972958,13.455891 14.0967944,14.237908 L14.0967944,14.2398134 Z M5.10650695,14.2398134 C5.10650695,15.0219307 5.74050433,15.6559281 6.52262163,15.6559281 C7.30463865,15.6559281 7.93873632,15.0219307 7.93873632,14.2398134 C7.9388366,13.4576961 7.30483922,12.8235985 6.5228222,12.8234982 C5.7407049,12.8233979 5.10660723,13.4573953 5.10650695,14.2395126 L5.10650695,14.2398134 Z M4.55995748,9.55463094 L17.0387348,9.55463094 L17.0387348,4.05072738 L4.55995748,4.05072738 L4.55995748,9.55463094 Z M18.6742716,16.5568823 C18.6742716,17.2326983 18.123811,17.7830585 17.4480954,17.7830585 L4.53257986,17.7830585 C3.85686421,17.7830585 3.30640365,17.2326983 3.30640365,16.5568823 L3.30640365,3.58851701 C3.30640365,2.91280136 3.85686421,2.36244109 4.53257986,2.36244109 L17.4460897,2.36244109 C18.1219056,2.36244109 18.6722659,2.91280136 18.6722659,3.58851701 L18.6722659,16.5568823 L18.6742716,16.5568823 Z M17.4480954,1.05403175 L4.53257986,1.05403175 C3.13602062,1.05403175 2,2.19005236 2,3.58851701 L2,16.5568823 C2,17.9534416 3.13602062,19.0914679 4.53448527,19.0914679 L5.97216108,19.0914679 L4.45034673,20.8895655 L6.13873331,20.9443207 L7.74679216,19.0914679 L13.9244057,19.0914679 L15.5129091,21.0540317 L17.4207177,21.0540317 L15.9614808,19.0914679 L17.4480954,19.0914679 C18.8446546,19.0914679 19.9825806,17.9554473 19.9825806,16.5568823 L19.9825806,3.58851701 C19.9806752,2.19005236 18.8446546,1.05403175 17.4480954,1.05403175 Z" id="Fill-1" fill="url(#linearGradient-1)"></path>
            </g>
        </g>
    </g>
</svg>